Coordinates
version=1
nRows=17
nColumns=40
inDegrees=yes

Units are S.I. units (second, meters, Newtons, ...)
Angles are in degrees.

endheader
time	pelvis_tilt	pelvis_list	pelvis_rotation	pelvis_tx	pelvis_ty	pelvis_tz	hip_flexion_r	hip_adduction_r	hip_rotation_r	knee_angle_r	knee_angle_r_beta	ankle_angle_r	subtalar_angle_r	mtp_angle_r	hip_flexion_l	hip_adduction_l	hip_rotation_l	knee_angle_l	knee_angle_l_beta	ankle_angle_l	subtalar_angle_l	mtp_angle_l	lumbar_extension	lumbar_bending	lumbar_rotation	arm_flex_r	arm_add_r	arm_rot_r	elbow_flex_r	pro_sup_r	wrist_flex_r	wrist_dev_r	arm_flex_l	arm_add_l	arm_rot_l	elbow_flex_l	pro_sup_l	wrist_flex_l	wrist_dev_l
     19.85500000	     -1.86966123	     -3.90009551	      7.13398683	      0.94862147	      0.92024041	      0.53469333	      2.63502387	      4.87492363	    -14.44713521	     18.56357515	     18.56357515	     19.64804537	     -6.91230112	     -2.27720994	     27.89331734	     -6.71231867	      4.58795915	     23.94443957	     23.94443957	      5.94045062	     -9.25022009	      5.38197629	    -10.03584937	      2.72435996	      3.71303950	     56.67868614	    -20.93929596	     -5.71238407	     83.23152021	     44.61277495	      0.00000000	      0.00000000	    -13.72582225	     -9.46300912	      1.63954908	     27.80451562	     46.35462793	      0.00000000	      0.00000000
     19.87450000	     -2.12491755	     -4.08692028	      7.39879036	      0.94799054	      0.91909751	      0.53185401	      2.38983627	      4.93756719	    -14.72960696	     18.28401604	     18.28401604	     19.87745901	     -6.73467805	     -2.33591139	     28.07615904	     -6.65833636	      4.58574166	     24.28414432	     24.28414432	      5.69132884	     -9.13460643	      4.87740472	     -9.93456911	      2.61395281	      3.73961969	     57.80426145	    -20.64257385	     -5.69958561	     84.38860359	     44.58815477	      0.00000000	      0.00000000	    -13.47895984	     -9.28059287	      1.45853395	     28.17172213	     46.38124743	      0.00000000	      0.00000000
     19.89400000	     -2.36866966	     -4.26371467	      7.63924278	      0.94756192	      0.91784572	      0.52884123	      2.17788184	      4.95415543	    -15.00134686	     18.12840783	     18.12840783	     20.10958527	     -6.50490122	     -2.32114899	     28.22656593	     -6.58761173	      4.63774798	     24.67433481	     24.67433481	      4.82945609	     -9.47686781	      2.83347376	     -9.89447422	      2.44708473	      4.00148998	     58.21673169	    -20.76304890	     -5.96034314	     86.70527505	     44.58084659	      0.00000000	      0.00000000	    -13.20491926	     -9.07956150	      0.22754927	     29.43787045	     46.52967389	      0.00000000	      0.00000000
     19.91350000	     -2.61422418	     -4.30884229	      7.85661996	      0.94722511	      0.91673793	      0.52562847	      1.96335034	      4.84035136	    -15.10734230	     17.99559012	     17.99559012	     20.31722756	     -6.57199245	     -2.32887478	     28.38213490	     -6.35997849	      4.73258395	     25.24317723	     25.24317723	      4.85474856	     -9.63126056	      2.65054525	     -9.76722290	      2.14655699	      4.01551832	     58.85745692	    -20.50883959	     -5.90979034	     87.08327589	     44.57147422	      0.00000000	      0.00000000	    -12.53834042	     -8.87329387	      0.23475858	     29.71631621	     46.53798231	      0.00000000	      0.00000000
     19.93300000	     -2.83238310	     -4.40761682	      8.04478803	      0.94701590	      0.91565286	      0.52230539	      1.72925398	      4.76913596	    -15.23620626	     17.88722451	     17.88722451	     20.48935365	     -6.59742448	     -2.32461485	     28.59839498	     -6.17649500	      4.90229068	     26.00410961	     26.00410961	      5.05271796	     -9.93003263	      2.38206754	     -9.69927538	      1.93268222	      3.98894336	     59.45561329	    -20.19077796	     -5.84387138	     87.58184879	     44.55728842	      0.00000000	      0.00000000	    -11.76050231	     -8.65961626	      0.23387613	     30.07568634	     46.54940351	      0.00000000	      0.00000000
     19.95250000	     -2.98724995	     -4.79651026	      8.23222964	      0.94687285	      0.91452814	      0.51884366	      1.48110320	      4.95234195	    -15.63440528	     17.84398616	     17.84398616	     20.71096529	     -6.08770468	     -2.05490525	     29.08447865	     -6.21685829	      5.41038934	     27.26196542	     27.26196542	      5.30737044	    -10.61440910	      2.09496845	     -9.85815299	      2.14640787	      4.06998696	     59.53795413	    -20.05526388	     -6.01081685	     90.85936379	     44.48728854	      0.00000000	      0.00000000	    -11.39356571	     -8.40535668	     -0.57412790	     31.48941627	     46.64353900	      0.00000000	      0.00000000
     19.97200000	     -3.20933790	     -5.00923149	      8.34469256	      0.94689374	      0.91376644	      0.51529141	      1.22309705	      4.97433916	    -15.76827123	     17.68140794	     17.68140794	     20.74969447	     -5.94704119	     -1.94240420	     29.37055552	     -6.11307558	      5.73537384	     28.11918178	     28.11918178	      5.67713369	    -11.03073088	      1.89807565	     -9.77102338	      2.11955120	      4.18754877	     59.86643260	    -19.88927680	     -5.97800938	     91.37514643	     44.47790735	      0.00000000	      0.00000000	    -10.52671462	     -8.19011876	     -0.70317574	     32.05723157	     46.66877477	      0.00000000	      0.00000000
     19.99150000	     -3.46690110	     -5.07516096	      8.39310630	      0.94703338	      0.91346302	      0.51155899	      0.98151966	      4.81178877	    -15.89743475	     17.51797426	     17.51797426	     20.65896110	     -5.85988959	     -1.82218000	     29.47482323	     -5.89158710	      5.84736551	     28.65414282	     28.65414282	      6.03851207	    -11.30571563	      1.74609017	     -9.62513376	      1.95575082	      4.22516470	     59.95622852	    -19.61586511	     -5.84800615	     91.69852687	     44.46653907	      0.00000000	      0.00000000	     -9.54062965	     -8.01617130	     -0.75941450	     32.62408156	     46.68954367	      0.00000000	      0.00000000
     20.01100000	     -3.68395732	     -5.27765768	      8.40313571	      0.94734422	      0.91343891	      0.50780909	      0.64592047	      4.74391589	    -16.31512059	     17.28196068	     17.28196068	     20.65945532	     -4.98760836	     -1.39480421	     29.58033432	     -5.78073201	      6.14805743	     29.27041034	     29.27041034	      6.88488875	    -11.58370630	      2.53710249	     -9.63147639	      1.91901103	      4.70503843	     59.48258702	    -20.19971750	     -5.82818635	     93.87411695	     44.42780407	      0.00000000	      0.00000000	     -9.02788834	     -7.83267448	     -1.76096643	     34.98842461	     46.80068768	      0.00000000	      0.00000000
     20.03050000	     -3.97633757	     -5.36609213	      8.33181426	      0.94762911	      0.91367839	      0.50408846	      0.51380876	      4.56367556	    -16.33121549	     17.25081076	     17.25081076	     20.39656414	     -4.91140533	     -1.27600097	     29.53267143	     -5.62702833	      6.19158038	     29.48089402	     29.48089402	      7.34289389	    -11.72257941	      2.37539013	     -9.43296238	      1.79566636	      4.73965459	     59.48882872	    -19.91144580	     -5.68088561	     93.89828215	     44.42407892	      0.00000000	      0.00000000	     -8.05551206	     -7.73309650	     -1.77859563	     35.46654408	     46.81629106	      0.00000000	      0.00000000
     20.05000000	     -4.20363121	     -5.53322842	      8.19960040	      0.94796279	      0.91422608	      0.50039073	      0.33147469	      4.41034626	    -16.61118892	     17.26075338	     17.26075338	     20.12126967	     -4.28707579	     -1.13919598	     29.44266312	     -5.61716617	      6.10598939	     29.74836689	     29.74836689	      8.05412211	    -11.63460881	      2.73942886	     -9.30281186	      1.78700225	      5.18524741	     59.37000008	    -20.29613473	     -5.52262582	     94.01074577	     44.43548184	      0.00000000	      0.00000000	     -7.35520174	     -7.64986144	     -2.33606250	     37.52899705	     46.88120181	      0.00000000	      0.00000000
     20.06950000	     -4.48191828	     -5.66556974	      8.04037502	      0.94829208	      0.91505880	      0.49674036	      0.29709657	      4.23664953	    -16.59569132	     17.40310476	     17.40310476	     19.68747210	     -4.20158581	     -1.02674727	     29.20929680	     -5.56878546	      6.03782761	     29.66129684	     29.66129684	      8.49795785	    -11.68770472	      2.64214404	     -9.13366665	      1.74749278	      5.16612846	     59.22221666	    -19.96914815	     -5.33708729	     93.97760330	     44.43153281	      0.00000000	      0.00000000	     -6.40379054	     -7.66515925	     -2.36882605	     38.04135606	     46.89834961	      0.00000000	      0.00000000
     20.08900000	     -4.73525211	     -5.64008757	      7.79258682	      0.94860293	      0.91613296	      0.49313657	      0.48440802	      3.76292769	    -16.69084008	     18.08887420	     18.08887420	     19.28781040	     -3.93864447	     -1.28468479	     28.79783746	     -5.49103844	      5.54772953	     29.38209684	     29.38209684	      9.08536738	    -11.22637033	      2.93565684	     -8.92954720	      1.55966104	      5.36604623	     59.00363548	    -20.00447754	     -5.03187940	     93.35265227	     44.46251972	      0.00000000	      0.00000000	     -5.96899204	     -7.77079598	     -2.87514231	     40.54295177	     46.95314582	      0.00000000	      0.00000000
     20.10850000	     -4.96055113	     -5.69089705	      7.57177082	      0.94886454	      0.91737768	      0.48955380	      0.68348914	      3.39634191	    -16.70996454	     18.77445641	     18.77445641	     18.68618785	     -3.94259211	     -1.74290840	     28.34187958	     -5.46791983	      5.16144910	     29.04297793	     29.04297793	      9.59628314	    -10.84890093	      3.12742277	     -8.76959171	      1.46901610	      5.18097073	     58.92176878	    -19.59225354	     -4.71393540	     92.31307813	     44.51300346	      0.00000000	      0.00000000	     -5.62939411	     -7.97281544	     -3.27784720	     42.75353367	     46.98605290	      0.00000000	      0.00000000
     20.12800000	     -5.08759447	     -5.71347248	      7.35659096	      0.94921627	      0.91900979	      0.48596311	      0.80816647	      3.01768535	    -16.64158474	     19.50705758	     19.50705758	     18.10001407	     -4.03398227	     -1.85581920	     27.61386449	     -5.41922224	      4.79193239	     28.41424762	     28.41424762	      9.91738383	    -10.58276424	      3.13996407	     -8.70178069	      1.42750537	      5.14305271	     58.46926989	    -19.31288374	     -4.54241561	     91.78170967	     44.52791759	      0.00000000	      0.00000000	     -4.67962432	     -8.14627758	     -3.36668501	     43.43669010	     47.00570429	      0.00000000	      0.00000000
     20.14750000	     -5.23516386	     -5.66928138	      7.12553951	      0.94943012	      0.92047944	      0.48238884	      1.14016564	      2.49493523	    -16.58381693	     20.55123149	     20.55123149	     17.07123481	     -4.39625909	     -3.53099600	     26.91514846	     -5.32828399	      4.27725550	     27.80719887	     27.80719887	     10.17381314	    -10.16513947	      2.96673290	     -8.56315344	      1.29097973	      4.54778605	     58.53197597	    -18.41059039	     -4.33740189	     89.29798605	     44.64506497	      0.00000000	      0.00000000	     -4.55619356	     -8.57209432	     -3.69692491	     45.63647515	     47.00852667	      0.00000000	      0.00000000
     20.16700000	     -5.30900253	     -5.61457240	      6.89671395	      0.94971463	      0.92217600	      0.47877359	      1.46698186	      1.95421436	    -16.46798752	     21.76283620	     21.76283620	     16.46563770	     -4.64907932	     -3.84516662	     26.06111099	     -5.20809701	      3.81502112	     27.07413349	     27.07413349	     10.39530788	     -9.86368990	      2.97439365	     -8.51411518	      1.21579722	      4.52768647	     57.71871848	    -18.31536155	     -4.27200469	     88.47772412	     44.67182684	      0.00000000	      0.00000000	     -3.53116892	     -8.82169137	     -3.80291715	     46.11415551	     47.02741530	      0.00000000	      0.00000000
